<svg xmlns="http://www.w3.org/2000/svg" version="1.1" xmlns:xlink="http://www.w3.org/1999/xlink" width="512" height="512"><svg xmlns="http://www.w3.org/2000/svg" version="1.1" xmlns:xlink="http://www.w3.org/1999/xlink" width="512" height="512"><svg width="512" height="512" viewBox="0 0 512 512" fill="none" xmlns="http://www.w3.org/2000/svg">
<circle cx="256" cy="256" r="256" fill="#FAF8F5"></circle>
<path d="M361.5 273.583C372.483 273.58 383.312 271.004 393.12 266.062C402.929 261.121 411.443 253.951 417.983 245.127C424.522 236.303 428.904 226.071 430.778 215.249C432.651 204.427 431.964 193.317 428.772 182.808C425.58 172.3 419.972 162.684 412.396 154.733C404.82 146.782 395.487 140.715 385.144 137.019C374.802 133.323 363.738 132.1 352.839 133.449C341.939 134.798 331.506 138.68 322.377 144.785M322.377 144.785C317.54 131.043 308.557 119.141 296.668 110.721C284.778 102.301 270.569 97.7795 256 97.7795C241.431 97.7795 227.222 102.301 215.332 110.721C203.443 119.141 194.46 131.043 189.623 144.785C180.493 138.68 170.061 134.798 159.161 133.449C148.262 132.1 137.198 133.323 126.856 137.019C116.513 140.715 107.18 146.782 99.6044 154.733C92.0283 162.684 86.4196 172.3 83.2275 182.808C80.0355 193.317 79.3488 204.427 81.2224 215.249C83.0961 226.071 87.478 236.303 94.0173 245.127C100.557 253.951 109.071 261.121 118.88 266.062C128.688 271.004 139.517 273.58 150.5 273.583M322.377 144.785C326.996 157.939 327.602 172.168 324.118 185.667M211.409 168.083C206.022 158.75 198.562 150.778 189.605 144.785" stroke="#F5CB4D" stroke-width="26.375" stroke-linecap="round" stroke-linejoin="round"></path>
<path d="M150.5 352.708C178.616 341.771 215.558 335.125 256 335.125C296.442 335.125 333.384 341.771 361.5 352.708M132.917 414.25C165.727 403.313 208.806 396.667 256 396.667C303.194 396.667 346.273 403.313 379.083 414.25M361.5 256V396.667M150.5 256V396.667" stroke="#F5CB4D" stroke-width="26.375" stroke-linecap="round"></path>
</svg></svg><style>@media (prefers-color-scheme: light) { :root { filter: none; } }
@media (prefers-color-scheme: dark) { :root { filter: none; } }
</style></svg>